<svg xmlns="http://www.w3.org/2000/svg" width="638.526" height="596.869" viewBox="0 0 638.526 596.869">
  <path id="téléchargement" d="M3.282,245.855C10.139,191,28.84,138.013,60.008,95.624c16.831-23.064,36.155-41.765,58.6-56.1C185.3-3.491,271.952-7.854,363.587,12.093A723.111,723.111,0,0,1,506.961,58.846c99.738,43.636,135.27,135.27,125.3,229.4a342.85,342.85,0,0,1-64.83,165.815c-25.558,34.908-56.1,64.207-91.011,86.648A311.059,311.059,0,0,1,219.59,580.6C157.877,563.147,99.9,525.122,44.424,439.1,7.646,381.748-6.068,316.919,3.282,245.855Z" transform="translate(2.084 1.847)" fill="none" stroke="#a50253" stroke-width="6" fill-rule="evenodd"/>
</svg>
