<svg xmlns="http://www.w3.org/2000/svg" xmlns:xlink="http://www.w3.org/1999/xlink" width="200.653" height="66.793" viewBox="0 0 200.653 66.793">
  <defs>
    <clipPath id="clip-path">
      <path id="path855" d="M25.32-75.208H225.973V-142H25.32Z" transform="translate(-25.32 142.001)"/>
    </clipPath>
    <clipPath id="clip-path-2">
      <path id="path875" d="M36.832-138.173a33.83,33.83,0,0,0-3.495,1.579h0a24.768,24.768,0,0,0-5.328,21.481h0A26.572,26.572,0,0,0,59.48-93.936h0A31.38,31.38,0,0,0,70.515-98.4h0l.019-31.964a29.053,29.053,0,0,0-22.143-9.979h0a32.279,32.279,0,0,0-11.56,2.169" transform="translate(-27.447 140.342)"/>
    </clipPath>
  </defs>
  <g id="logo-cyu-couleur" transform="translate(-87.291 -124.559)">
    <g id="g851" transform="translate(87.291 124.559)">
      <g id="g853" transform="translate(0 0)" clip-path="url(#clip-path)">
        <g id="g859" transform="translate(2.22 12.822)">
          <path id="path861" d="M42.866,31.225a31.382,31.382,0,0,1-11.01,4.446A26.573,26.573,0,0,1,.384,14.494,24.751,24.751,0,0,1,5.717-6.985,32.083,32.083,0,0,0-4.34,1.147C-9.934,8.071-11.81,17.1-6.214,25.6q.915,1.387,1.874,2.723a67.617,67.617,0,0,0,6.963,8.316C8.816,42.858,15.869,46.986,23.3,46.986a20.529,20.529,0,0,0,7.43-1.411,29.824,29.824,0,0,0,12.083-8.941" transform="translate(9.589 6.985)" fill="#fee718"/>
        </g>
        <g id="g863" transform="translate(17.525 1.259)">
          <path id="path865" d="M30.342,3.005A26.024,26.024,0,0,0,8.362.817a39.654,39.654,0,0,0-6.7,3.09A31.856,31.856,0,0,0-6.787,10.89,33.63,33.63,0,0,1-3.295,9.31,32.282,32.282,0,0,1,8.265,7.143a29.041,29.041,0,0,1,22.112,9.944" transform="translate(6.787 0.672)" fill="#63cce3"/>
        </g>
        <g id="g867" transform="translate(11.632 9.073)">
          <path id="path869" d="M35.211,8.155A29.046,29.046,0,0,0,13.07-1.824,32.285,32.285,0,0,0,1.509.343,33.814,33.814,0,0,0-1.984,1.923,24.761,24.761,0,0,0-7.314,23.4,26.572,26.572,0,0,0,24.157,44.58a31.384,31.384,0,0,0,11.037-4.462" transform="translate(7.877 1.824)" fill="#59c134"/>
        </g>
      </g>
    </g>
    <g id="g871" transform="translate(98.923 133.631)">
      <g id="g873" clip-path="url(#clip-path-2)">
        <g id="g879" transform="translate(22.267 11.043)">
          <path id="path881" d="M17.029,0h-.22L8.628,11.077,5.056,0H-1.683L3.31,15.379a4.866,4.866,0,0,1-.789,3.91l-6.33,8.557H4.039L17.015,10.29" transform="translate(3.809)" fill="#fff"/>
        </g>
        <g id="g883" transform="translate(-0.15 11.044)">
          <path id="path885" d="M0,11.377A13.927,13.927,0,0,0,13.922,25.3h3.439l4.724-6.411H13.922a7.892,7.892,0,0,1-7.459-7.511A7.857,7.857,0,0,1,13.922,3.9h8.385L20.223-2.545h-6.3A13.927,13.927,0,0,0,0,11.377" transform="translate(0 2.545)" fill="#fff"/>
        </g>
      </g>
    </g>
    <path id="path887" d="M97.259,190.3h.328V124.79h-.328Z" transform="translate(44.562 1.033)" fill="#313a3a"/>
    <g id="g889" transform="translate(87.291 124.559)">
      <g id="g891" transform="translate(0 0)" clip-path="url(#clip-path)">
        <g id="g897" transform="translate(61.404 20.778)">
          <path id="path899" d="M102.861,18.316h13.378V16.428H104.93V10.006h10V8.119h-10V1.854h11.179V-.035H102.861ZM108.674-1.66h1.675L113.359-4.1l-1.947.027ZM92.965,18.316h2.1V1.879h6.152V-.035h-14.4V1.879h6.152Zm-10.051,0h2.069V-.035H82.914Zm-8.429.262c3.638,0,6.256-2.046,6.256-5.191v-.052c0-2.8-1.885-4.3-5.969-5.189C70.739,7.281,69.8,6.31,69.8,4.579V4.527c0-1.652,1.519-2.962,3.9-2.962a8.045,8.045,0,0,1,5.29,1.992l1.2-1.6A9.557,9.557,0,0,0,73.751-.3c-3.483,0-6.023,2.123-6.023,5.006v.054c0,3.014,1.938,4.377,6.152,5.293,3.85.812,4.765,1.783,4.765,3.487V13.6c0,1.808-1.623,3.121-4.084,3.121a8.719,8.719,0,0,1-6.284-2.6L67,15.643a10.724,10.724,0,0,0,7.49,2.935M53.237,9.325V1.879h5.656c2.958,0,4.686,1.362,4.686,3.618V5.55c0,2.358-1.963,3.775-4.713,3.775Zm-2.069,8.991h2.069V11.185h5.238l5.315,7.131h2.54l-5.629-7.5c2.879-.523,4.973-2.306,4.973-5.348V5.419A5.076,5.076,0,0,0,64.261,1.8,7.218,7.218,0,0,0,59.05-.035H51.169Zm-15.315,0H49.233V16.428H37.922V10.006h10V8.119h-10V1.854H49.1V-.035H35.854Zm-11.1.131h1.833L34.468-.035H32.241L25.7,15.772,19.178-.035h-2.3ZM12.58,18.316h2.069V-.035H12.58Zm-17.984,0h2.015V3.269L8.446,18.316h1.648V-.035H8.08V14.672L-3.466-.035H-5.4Zm-9.987.289c4.581,0,7.644-2.779,7.644-8.126V-.035H-9.814v10.67c0,4.01-2.148,6.056-5.525,6.056-3.481,0-5.6-2.229-5.6-6.187V-.035H-23.01v10.67c0,5.191,3.09,7.97,7.619,7.97" transform="translate(23.01 4.097)" fill="#313a3a"/>
        </g>
        <g id="g901" transform="translate(61.387 13.39)">
          <path id="path903" d="M45.036,5.444c1.283,0,2.206-.72,2.206-1.828V3.6c0-.988-.666-1.513-2.1-1.828-1.42-.3-1.754-.646-1.754-1.254V.5c0-.583.536-1.042,1.374-1.042a2.825,2.825,0,0,1,1.864.7l.425-.564A3.361,3.361,0,0,0,44.777-1.2,1.905,1.905,0,0,0,42.656.563V.581c0,1.061.681,1.542,2.167,1.864,1.357.286,1.679.627,1.679,1.227v.019c0,.637-.571,1.1-1.44,1.1a3.072,3.072,0,0,1-2.214-.913L42.4,4.41a3.775,3.775,0,0,0,2.638,1.034m-4.28-.093h.729V-1.106h-.729ZM35.3,2.186V-.432H37.3c1.042,0,1.65.479,1.65,1.272V.859c0,.83-.691,1.328-1.66,1.328Zm-.728,3.165H35.3V2.843h1.845L39.02,5.351h.9L37.932,2.713A1.892,1.892,0,0,0,39.686.832V.812a1.79,1.79,0,0,0-.5-1.274,2.551,2.551,0,0,0-1.837-.645H34.576Zm-5.49-2.37L30.562-.3l1.467,3.285Zm-1.8,2.37h.747L28.8,3.645h3.514l.756,1.706h.784l-2.943-6.5H30.23Zm-3.68-2.943V-.432h1.633c1.042,0,1.733.479,1.733,1.4V.988c0,.847-.7,1.42-1.772,1.42Zm-.729,2.943h.729V3.072h1.567c1.374,0,2.538-.72,2.538-2.113V.942c0-1.274-.959-2.048-2.418-2.048H22.877Zm-11.67.112A3.916,3.916,0,0,0,13.8,4.475V1.9H11.132v.656H13.1V4.163a3.047,3.047,0,0,1-1.864.645A2.494,2.494,0,0,1,8.68,2.123V2.1A2.522,2.522,0,0,1,11.132-.542,2.745,2.745,0,0,1,13.1.195l.469-.554a3.4,3.4,0,0,0-2.406-.859A3.241,3.241,0,0,0,7.923,2.123V2.14a3.168,3.168,0,0,0,3.285,3.323M2.823,2.186V-.432H4.814c1.042,0,1.652.479,1.652,1.272V.859c0,.83-.693,1.328-1.662,1.328ZM2.093,5.351h.729V2.843H4.668L6.539,5.351h.9L5.451,2.713A1.89,1.89,0,0,0,7.2.832V.812a1.782,1.782,0,0,0-.5-1.274A2.546,2.546,0,0,0,4.87-1.106H2.093Zm-5.627,0H1.18V4.687H-2.8V2.428H.719V1.762H-2.8v-2.2H1.134v-.664H-3.534Zm-3.3.112A3.367,3.367,0,0,0-4.254,4.329l-.481-.471a2.8,2.8,0,0,1-2.084.93,2.547,2.547,0,0,1-2.5-2.665V2.1a2.53,2.53,0,0,1,2.5-2.646,2.8,2.8,0,0,1,2.03.884l.5-.535A3.366,3.366,0,0,0-6.809-1.218a3.253,3.253,0,0,0-3.265,3.341V2.14A3.222,3.222,0,0,0-6.838,5.463" transform="translate(10.074 1.218)" fill="#6d706f"/>
        </g>
        <g id="g905" transform="translate(86.117 13.495)">
          <path id="path907" d="M1.2,3.673-.27,5.666H.6L5.4-.822H4.534L2.1,2.376,1.043-.822H.225L1.388,2.762a1.136,1.136,0,0,1-.183.911" transform="translate(0.27 0.822)" fill="#6d706f"/>
        </g>
      </g>
    </g>
  </g>
</svg>
